<?xml version="1.0" standalone="no"?>
<!DOCTYPE svg PUBLIC "-//W3C//DTD SVG 20010904//EN"
 "http://www.w3.org/TR/2001/REC-SVG-20010904/DTD/svg10.dtd">
<svg version="1.0" xmlns="http://www.w3.org/2000/svg"
 width="1024.000000pt" height="1024.000000pt" viewBox="0 0 1024.000000 1024.000000"
 preserveAspectRatio="xMidYMid meet">
<metadata>
Created by potrace 1.14, written by Peter Selinger 2001-2017
</metadata>
<g transform="translate(0.000000,1024.000000) scale(0.100000,-0.100000)"
fill="#000000" stroke="none">
<path d="M2550 8975 c-36 -7 -81 -15 -100 -19 -91 -17 -282 -93 -346 -137 -23
-16 -45 -29 -49 -29 -3 0 -38 -24 -78 -53 -141 -105 -284 -265 -353 -397 -16
-30 -32 -56 -36 -58 -5 -2 -8 -11 -8 -21 0 -9 -4 -21 -9 -27 -24 -23 -116
-337 -144 -489 -2 -11 -7 -31 -10 -45 -17 -65 -86 -358 -90 -380 -3 -14 -10
-45 -17 -70 -7 -25 -14 -53 -16 -62 -10 -43 -13 -58 -34 -143 -12 -49 -23 -99
-26 -110 -2 -11 -10 -47 -18 -80 -8 -33 -33 -134 -54 -225 -22 -91 -56 -235
-77 -320 -20 -85 -38 -162 -40 -170 -2 -8 -42 -178 -90 -378 -47 -200 -88
-371 -90 -380 -3 -9 -9 -37 -16 -62 -6 -25 -13 -55 -15 -67 -2 -13 -20 -85
-39 -160 -18 -76 -43 -178 -54 -228 -11 -49 -50 -214 -86 -365 -37 -151 -68
-282 -70 -290 -2 -8 -20 -82 -40 -165 -19 -82 -44 -188 -55 -235 -11 -47 -45
-188 -75 -315 -48 -197 -99 -412 -110 -465 -2 -8 -22 -91 -45 -185 -23 -93
-43 -177 -45 -185 -26 -115 -56 -241 -60 -252 -2 -7 -6 -24 -9 -38 -2 -14 -13
-61 -24 -105 -30 -121 -35 -162 -34 -260 4 -288 168 -546 427 -674 130 -64
230 -85 374 -78 111 5 141 10 206 32 191 65 329 175 426 340 55 95 78 156 119
325 11 47 24 101 30 120 8 29 42 168 55 220 2 8 27 107 55 220 28 113 53 212
55 220 2 8 17 71 35 140 18 69 33 133 35 143 3 10 7 27 10 37 3 10 7 27 9 37
6 25 54 221 66 263 12 45 50 197 114 460 49 197 59 225 123 317 53 76 106 122
186 161 111 54 117 54 825 57 361 1 671 5 687 9 242 53 445 205 552 414 18 34
32 63 32 65 0 1 2 9 5 17 34 98 41 143 40 270 0 113 -4 147 -23 210 -81 262
-267 449 -523 528 -95 30 -157 34 -558 34 -364 1 -405 5 -489 44 -50 24 -119
78 -149 116 -52 69 -98 197 -95 263 2 41 15 122 28 170 59 217 131 457 151
502 48 103 132 211 225 286 60 48 199 120 264 136 28 7 59 16 70 19 11 4 893
8 1960 9 1734 3 1946 5 1995 19 30 9 294 134 585 279 468 232 535 268 572 308
88 95 88 246 0 341 -37 41 -103 77 -577 313 -294 146 -557 272 -585 279 -71
19 -4755 18 -4855 -1z"/>
<path d="M8251 8986 c2 -2 101 -52 219 -112 118 -59 236 -122 261 -140 255
-179 344 -506 214 -790 -14 -31 -32 -63 -40 -71 -8 -8 -15 -18 -15 -22 0 -14
-114 -126 -160 -158 -25 -17 -139 -77 -253 -134 -114 -56 -207 -106 -207 -110
0 -4 273 -7 606 -7 654 0 662 1 794 55 332 137 529 483 473 833 -44 279 -219
498 -483 606 -128 52 -163 54 -813 54 -330 0 -598 -2 -596 -4z"/>
<path d="M5199 7043 c-36 -96 -46 -759 -14 -993 11 -80 16 -107 41 -204 30
-122 80 -270 105 -311 10 -16 19 -34 20 -40 19 -81 195 -355 303 -474 100
-109 274 -271 292 -271 3 0 24 -15 47 -33 192 -153 522 -291 814 -341 133 -23
148 -25 283 -31 102 -4 190 -12 220 -20 3 -1 19 -5 35 -9 80 -20 215 -86 253
-123 7 -7 17 -13 21 -13 14 0 122 -116 163 -175 50 -73 82 -143 109 -242 23
-84 32 -236 17 -310 -5 -26 -11 -59 -14 -73 -14 -71 -84 -219 -126 -264 -10
-11 -18 -23 -18 -27 0 -10 -124 -130 -147 -143 -10 -5 -20 -12 -23 -16 -24
-34 -224 -114 -316 -126 -27 -4 -870 -8 -1874 -9 l-1825 -2 -60 -21 c-51 -18
-320 -149 -964 -470 -150 -75 -203 -122 -225 -200 -20 -73 -20 -95 0 -162 27
-91 68 -123 319 -246 121 -60 222 -112 223 -116 2 -5 8 -8 12 -8 14 0 145 -64
148 -72 2 -4 8 -8 12 -8 10 0 303 -142 310 -151 15 -17 185 -80 236 -87 70 -9
3685 -8 3762 2 28 3 76 8 105 11 228 23 516 113 762 238 95 48 327 195 370
234 11 10 36 30 55 44 79 59 285 279 393 419 20 26 113 173 140 220 110 197
202 434 246 635 47 214 56 318 56 665 -1 301 -3 358 -16 440 -5 30 -11 75 -14
100 -3 25 -13 72 -21 105 -9 33 -18 71 -20 84 -8 39 -84 243 -114 301 -15 30
-31 62 -34 70 -4 8 -12 24 -19 35 -7 11 -33 56 -59 100 -75 128 -232 316 -355
425 -140 124 -320 246 -450 305 -32 15 -76 35 -98 45 -119 55 -330 117 -462
135 -26 4 -59 9 -73 11 -26 5 -111 10 -270 19 -52 2 -110 9 -128 14 -18 5 -33
9 -35 9 -5 -3 -87 27 -136 49 -266 119 -453 415 -446 703 3 93 25 230 37 230
5 0 7 3 4 8 -2 4 12 41 32 82 l37 76 -809 -1 -808 0 -9 -22z"/>
</g>
</svg>
